<svg xmlns="http://www.w3.org/2000/svg" viewBox="0 0 410 404" fill="none">
  <path d="M399.641 59.525L215.643 388.545c-3.847 6.881-13.735 6.928-17.647.083L10.295 59.594c-4.256-7.41 2.073-16.42 10.452-14.894l184.06 33.479a10 10 0 0 0 3.58 0l180.827-33.394c8.365-1.544 14.719 7.432 10.427 14.74Z" fill="#41D1FF"/>
  <path d="M292.965.012 156.412 26.776a5 5 0 0 0-4.03 4.178L144.07 84.946a5 5 0 0 0 6.063 5.624l38.008-8.79a5 5 0 0 1 6.012 6.219l-11.293 55.295a5 5 0 0 0 6.75 5.689l23.48-9.213a5 5 0 0 1 6.602 5.943l-17.945 87.302c-1.122 5.46 6.15 8.436 9.174 3.753l2.021-3.129 111.24-221.99c1.86-3.712-1.341-7.852-5.4-7.057Z" fill="#BD34FE"/>
</svg>
